<svg width="22" height="22" viewBox="0 0 22 22" fill="none" xmlns="http://www.w3.org/2000/svg">
<path d="M19.3325 3.96138C17.4382 1.74217 14.7286 0.354983 11.7984 0.104245C8.86823 -0.146494 5.95686 0.759725 3.70338 2.624C3.36838 2.90648 3.04934 3.20689 2.74774 3.52388L1.35938 2.39279C1.26218 2.31203 1.14394 2.25985 1.01813 2.24219C0.892311 2.22453 0.764005 2.2421 0.647827 2.2929C0.531648 2.34371 0.432285 2.42569 0.361077 2.52952C0.289868 2.63334 0.249667 2.75482 0.245082 2.88008L0.0611644 7.45427C0.0566953 7.55745 0.0765317 7.66028 0.119095 7.75464C0.161659 7.849 0.225792 7.93234 0.306491 7.99816C0.38719 8.06397 0.482253 8.11047 0.584217 8.13397C0.686181 8.15748 0.792296 8.15736 0.89421 8.13365L5.42714 7.1057C5.55038 7.07714 5.66311 7.01531 5.75272 6.92711C5.84232 6.83891 5.90527 6.72783 5.93448 6.60633C5.96368 6.48483 5.95798 6.35771 5.91806 6.23922C5.87813 6.12073 5.80556 6.01556 5.70843 5.93548L4.43183 4.89331C4.6482 4.67634 4.86818 4.46291 5.1098 4.26373C6.57526 3.05138 8.39684 2.33544 10.306 2.22144C12.2152 2.10743 14.111 2.60141 15.7141 3.63052C17.3171 4.65964 18.5426 6.16947 19.2098 7.9375C19.8771 9.70553 19.9509 11.6382 19.4204 13.4508C18.8898 15.2633 17.7829 16.8597 16.2628 18.0049C14.7428 19.15 12.89 19.7832 10.9776 19.8111C9.06509 19.839 7.19409 19.2603 5.64033 18.1601C4.08657 17.0599 2.93224 15.4964 2.34746 13.7002C2.25237 13.4403 2.0588 13.2269 1.80742 13.1049C1.55603 12.9829 1.26647 12.9619 0.999683 13.0462C0.732894 13.1306 0.509637 13.3137 0.376968 13.5571C0.244299 13.8004 0.212547 14.0851 0.288355 14.3511C0.78807 15.8911 1.62754 17.3027 2.74638 18.4846C3.86521 19.6664 5.23564 20.5889 6.75911 21.186C8.28259 21.7831 9.92126 22.0398 11.5573 21.9376C13.1934 21.8355 14.7862 21.3771 16.2212 20.5953C17.6562 19.8136 18.8977 18.7279 19.8566 17.4164C20.8154 16.1049 21.4677 14.6001 21.7666 13.0103C22.0655 11.4205 22.0035 9.78508 21.5852 8.22168C21.1668 6.65829 20.4024 5.20574 19.3469 3.9685L19.3325 3.96138Z" fill="#B5B2A6"/>
</svg>
