<svg width="20" height="20" viewBox="0 0 20 20" fill="none" xmlns="http://www.w3.org/2000/svg">
<path d="M19.6455 17.9416L15.5046 13.8006C16.8165 12.0564 17.4184 9.87966 17.1889 7.70923C16.9593 5.5388 15.9154 3.53612 14.2676 2.10497C12.6198 0.673809 10.4906 -0.0793761 8.30941 -0.00273244C6.12822 0.0739112 4.05725 0.974678 2.51396 2.51796C0.970674 4.06125 0.0698827 6.13227 -0.00676092 8.31346C-0.0834045 10.4947 0.669806 12.6238 2.10096 14.2716C3.53212 15.9194 5.5348 16.9633 7.70523 17.1929C9.87566 17.4224 12.0524 16.8205 13.7966 15.5086L17.9376 19.6657C18.1641 19.892 18.4713 20.0191 18.7915 20.0191C19.1118 20.0191 19.4189 19.892 19.6455 19.6657C19.76 19.5532 19.8509 19.419 19.913 19.271C19.9751 19.123 20.0071 18.9641 20.0071 18.8036C20.0071 18.6431 19.9751 18.4842 19.913 18.3362C19.8509 18.1882 19.76 18.0541 19.6455 17.9416ZM4.22963 13.0111C3.3619 12.1428 2.77105 11.0367 2.53186 9.83269C2.29267 8.62867 2.41586 7.38078 2.8858 6.24675C3.35575 5.11272 4.15134 4.14346 5.17207 3.46156C6.19279 2.77965 7.39278 2.41569 8.62033 2.41569C9.84788 2.41569 11.0479 2.77965 12.0686 3.46156C13.0893 4.14346 13.885 5.11272 14.3549 6.24675C14.8248 7.38078 14.948 8.62867 14.7088 9.83269C14.4696 11.0367 13.8788 12.1428 13.0111 13.0111C11.8463 14.1751 10.267 14.8289 8.62033 14.8289C6.97365 14.8289 5.39439 14.1751 4.22963 13.0111Z" fill="#F2EADF"/>
</svg>
