<svg width="16" height="16" viewBox="0 0 16 16" fill="none" xmlns="http://www.w3.org/2000/svg">
<path d="M15.7164 14.3534L12.4037 11.0406C13.4532 9.64523 13.9347 7.90383 13.7511 6.16748C13.5675 4.43114 12.7323 2.82899 11.4141 1.68407C10.0958 0.539145 8.39251 -0.0634032 6.64755 -0.0020883C4.9026 0.0592266 3.24582 0.77984 2.01119 2.01447C0.776564 3.2491 0.0559306 4.90592 -0.00538432 6.65087C-0.0666992 8.39582 0.535869 10.0991 1.68079 11.4174C2.82572 12.7356 4.42786 13.5707 6.16421 13.7544C7.90055 13.938 9.64195 13.4565 11.0373 12.4069L14.3501 15.7326C14.5313 15.9137 14.7771 16.0154 15.0332 16.0154C15.2894 16.0154 15.5352 15.9137 15.7164 15.7326C15.808 15.6426 15.8808 15.5353 15.9304 15.4169C15.9801 15.2985 16.0057 15.1714 16.0057 15.043C16.0057 14.9146 15.9801 14.7875 15.9304 14.6691C15.8808 14.5507 15.808 14.4433 15.7164 14.3534ZM3.38373 10.409C2.68955 9.71432 2.21687 8.82947 2.02551 7.86625C1.83416 6.90304 1.93271 5.90472 2.30867 4.9975C2.68462 4.09027 3.3211 3.31487 4.13768 2.76934C4.95426 2.22382 5.91425 1.93265 6.89629 1.93265C7.87833 1.93265 8.83831 2.22382 9.65489 2.76934C10.4715 3.31487 11.108 4.09027 11.4839 4.9975C11.8599 5.90472 11.9584 6.90304 11.7671 7.86625C11.5757 8.82947 11.1031 9.71432 10.4089 10.409C9.47707 11.3401 8.21363 11.8632 6.89629 11.8632C5.57894 11.8632 4.31554 11.3401 3.38373 10.409Z" fill="#111C26"/>
</svg>
