<svg width="25" height="37" viewBox="0 0 25 37" fill="none" xmlns="http://www.w3.org/2000/svg">
<g clip-path="url(#clip0_1044_3066)">
<path d="M9.70222 17.3322C9.54182 17.3552 9.3783 17.3405 9.22454 17.2894C9.07078 17.2382 8.93097 17.152 8.81619 17.0376C8.70142 16.9231 8.61482 16.7835 8.56319 16.6298C8.51156 16.4761 8.4963 16.3125 8.51868 16.1519V8.2287C8.4963 8.06809 8.51156 7.90449 8.56319 7.75078C8.61482 7.59707 8.70142 7.45748 8.81619 7.34302C8.93097 7.22856 9.07078 7.14235 9.22454 7.09122C9.3783 7.04009 9.54182 7.02542 9.70222 7.04838H13.2276C14.1324 6.99159 15.0298 7.24232 15.7744 7.75993C16.0677 7.99242 16.3017 8.29116 16.4572 8.63166C16.6128 8.97215 16.6855 9.34469 16.6694 9.71875C16.6794 10.2196 16.5332 10.7112 16.2512 11.1251C15.9664 11.5244 15.5709 11.8314 15.1137 12.0082C15.648 12.1402 16.1223 12.4484 16.4603 12.883C16.7867 13.3317 16.9531 13.877 16.9329 14.4316C16.9529 14.8374 16.877 15.2422 16.7114 15.6131C16.5457 15.9841 16.2949 16.3106 15.9794 16.5663C15.2261 17.1133 14.3074 17.3837 13.3782 17.3322H9.70222ZM10.6766 11.28H12.8345C13.9428 11.28 14.5073 10.8614 14.5073 9.99499C14.5073 9.12859 13.9511 8.73934 12.8345 8.73934H10.6766V11.28ZM10.6766 15.6538H13.0813C13.5349 15.6924 13.988 15.5742 14.3651 15.319C14.5079 15.1919 14.6199 15.0338 14.6923 14.8568C14.7648 14.6798 14.7959 14.4886 14.7833 14.2977C14.7959 14.1093 14.7646 13.9206 14.6921 13.7463C14.6195 13.572 14.5076 13.4169 14.3651 13.2932C13.9885 13.0364 13.5354 12.9168 13.0813 12.9542H10.6766V15.6538Z" fill="#7694AF"/>
<path d="M12.5 32.8354C12.2782 32.8354 12.0654 32.7472 11.9086 32.5902C11.7517 32.4332 11.6636 32.2203 11.6636 31.9983V26.758C11.6587 26.2838 11.4892 25.8261 11.1839 25.4633C10.8787 25.1005 10.4569 24.8554 9.9908 24.7699C7.74682 24.3083 5.67275 23.2385 3.9951 21.6771C2.31746 20.1158 1.10077 18.1231 0.477976 15.9166C-0.144819 13.7101 -0.149769 11.3748 0.463631 9.16573C1.07703 6.95664 2.28522 4.95873 3.9562 3.39027C5.20195 2.21494 6.67746 1.31064 8.28972 0.734348C9.90199 0.158054 11.616 -0.0777377 13.3238 0.0418491C16.0994 0.225917 18.7343 1.33126 20.8114 3.18291C22.8885 5.03455 24.2892 7.5267 24.7917 10.2648C25.2943 13.0029 24.8699 15.8306 23.5858 18.3002C22.3018 20.7697 20.2314 22.7401 17.7024 23.8993C17.6025 23.9449 17.4945 23.9704 17.3847 23.9743C17.2749 23.9781 17.1655 23.9603 17.0626 23.9218C16.9597 23.8834 16.8653 23.825 16.785 23.75C16.7046 23.6751 16.6398 23.585 16.5942 23.485C16.5486 23.3849 16.5232 23.2769 16.5193 23.167C16.5154 23.0571 16.5332 22.9475 16.5717 22.8446C16.6101 22.7416 16.6685 22.6471 16.7434 22.5667C16.8183 22.4863 16.9083 22.4214 17.0082 22.3758C19.2026 21.3738 20.9998 19.6671 22.1148 17.5266C23.2299 15.386 23.5988 12.9341 23.1632 10.5598C22.7275 8.18553 21.5122 6.02479 19.7101 4.4204C17.9079 2.816 15.622 1.85981 13.2151 1.7035C11.7374 1.60733 10.2557 1.81556 8.86158 2.31532C7.46747 2.81509 6.19064 3.59576 5.10998 4.60907C4.02933 5.62238 3.16782 6.84678 2.57878 8.20656C1.98974 9.56635 1.68567 11.0326 1.68536 12.5147C1.69377 15.0072 2.55682 17.4212 4.13023 19.3533C5.70364 21.2853 7.89206 22.6182 10.3296 23.1292C11.1761 23.2879 11.9408 23.7372 12.4919 24.3996C13.0431 25.062 13.3462 25.896 13.349 26.758V31.9983C13.349 32.1093 13.3269 32.2192 13.2841 32.3216C13.2413 32.424 13.1786 32.5168 13.0996 32.5947C13.0206 32.6726 12.9269 32.734 12.824 32.7753C12.721 32.8166 12.6109 32.8371 12.5 32.8354Z" fill="#7694AF"/>
<path d="M20.8974 37.0043H4.10251C3.88069 37.0043 3.66796 36.9161 3.5111 36.7591C3.35425 36.6021 3.26611 36.3892 3.26611 36.1672C3.26611 35.9452 3.35425 35.7322 3.5111 35.5752C3.66796 35.4183 3.88069 35.3301 4.10251 35.3301H20.8974C21.1192 35.3301 21.332 35.4183 21.4889 35.5752C21.6457 35.7322 21.7338 35.9452 21.7338 36.1672C21.7338 36.3892 21.6457 36.6021 21.4889 36.7591C21.332 36.9161 21.1192 37.0043 20.8974 37.0043Z" fill="#7694AF"/>
</g>
<defs>
<clipPath id="clip0_1044_3066">
<rect width="25" height="37" fill="white"/>
</clipPath>
</defs>
</svg>
