<svg width="38" height="24" viewBox="0 0 38 24" fill="none" xmlns="http://www.w3.org/2000/svg">
<path d="M29.3952 23.9997C28.0088 23.9995 26.6434 23.6697 25.417 23.0391C24.1906 22.4084 23.14 21.4957 22.356 20.38C21.8336 19.6838 21.2735 19.0152 20.6781 18.3772C20.499 18.1793 20.28 18.0197 20.0347 17.9084C19.7894 17.7971 19.5231 17.7365 19.2526 17.7305C18.9822 17.7245 18.7134 17.7732 18.4631 17.8735C18.2129 17.9738 17.9866 18.1236 17.7986 18.3134L14.8143 21.2919C14.5503 21.5752 14.266 21.8398 13.9635 22.0838C12.7767 23.0415 11.3463 23.6677 9.8241 23.896C8.30191 24.1243 6.74479 23.9461 5.31802 23.3804C3.89126 22.8146 2.64811 21.8824 1.72053 20.6827C0.792943 19.4831 0.215542 18.0607 0.049636 16.5666C-0.11627 15.0725 0.135503 13.5624 0.778224 12.1967C1.42094 10.831 2.43064 9.66057 3.7001 8.80972C4.96956 7.95887 6.45142 7.45932 7.98838 7.36413C9.52534 7.26893 11.06 7.58163 12.4296 8.26902C12.8216 8.46266 13.2666 8.52989 13.7003 8.46103C14.134 8.39218 14.5342 8.19078 14.8431 7.88585L20.4032 2.46008C21.202 1.67599 22.1526 1.05473 23.1997 0.632411C24.2468 0.210092 25.3696 -0.00485406 26.5026 8.31622e-05H28.9371C29.2133 -0.0028985 29.4805 0.095944 29.6853 0.276848C29.8901 0.457751 30.0174 0.707395 30.0417 0.975907C30.0511 1.11792 30.0304 1.26029 29.9811 1.3942C29.9317 1.5281 29.8547 1.6507 29.7548 1.75439C29.6549 1.85808 29.5343 1.94067 29.4004 1.99702C29.2665 2.05338 29.1222 2.0823 28.9763 2.08201H26.5026C25.6506 2.08075 24.8069 2.24472 24.0205 2.56441C23.234 2.88411 22.5206 3.35313 21.9215 3.94424L14.6154 11.0739C14.5833 11.1185 14.5474 11.1603 14.508 11.1991C14.4628 11.2456 14.4128 11.2875 14.3588 11.3242L11.5055 14.1086C11.4609 14.1517 11.4304 14.2068 11.4179 14.2668C11.4054 14.3268 11.4115 14.3891 11.4353 14.4457C11.4591 14.5024 11.4997 14.5508 11.5518 14.585C11.6039 14.6191 11.6652 14.6374 11.728 14.6374H16.4164C17.0802 14.6371 17.7372 14.5075 18.349 14.2561C18.9608 14.0048 19.515 13.6368 19.9791 13.1737L23.0995 10.0546C23.9164 9.18499 24.9129 8.49424 26.0234 8.02793C27.1338 7.56163 28.333 7.33038 29.5418 7.34941C31.8044 7.36838 33.9666 8.26367 35.5528 9.83835C37.1389 11.413 38.0191 13.5381 37.9997 15.7461C37.9802 17.954 37.0628 20.064 35.4491 21.6119C33.8355 23.1597 31.6578 24.0187 29.3952 23.9997ZM8.53173 9.43899C7.5048 9.43998 6.49319 9.68208 5.58232 10.1449C4.67145 10.6077 3.88806 11.2775 3.29831 12.0979C2.70856 12.9183 2.32976 13.8652 2.19391 14.8585C2.05805 15.8518 2.16912 16.8624 2.51774 17.805C2.86635 18.7477 3.44228 19.5946 4.19689 20.2743C4.9515 20.954 5.86262 21.4465 6.85334 21.7103C7.84406 21.9741 8.88528 22.0013 9.88908 21.7898C10.8929 21.5783 11.8298 21.1341 12.6206 20.4949C12.8509 20.3077 13.0678 20.1054 13.2699 19.8895L13.296 19.8614L14.6887 18.4717C14.8396 18.3288 14.943 18.1448 14.9853 17.9438C15.0276 17.7427 15.0068 17.5339 14.9257 17.3445C14.8446 17.1551 14.707 16.9939 14.5307 16.882C14.3544 16.77 14.1477 16.7124 13.9374 16.7168H11.2489C10.8499 16.7228 10.4561 16.627 10.1067 16.4388C9.7573 16.2506 9.46434 15.9766 9.25685 15.6439C9.00805 15.2292 8.90726 14.7456 8.97026 14.269C9.03327 13.7924 9.25651 13.3497 9.60501 13.0102L11.1469 11.5056C11.2728 11.3863 11.3661 11.238 11.4179 11.0743C11.4698 10.9107 11.4787 10.7369 11.4438 10.569C11.4088 10.4011 11.3312 10.2445 11.218 10.1136C11.1049 9.98262 10.9598 9.88153 10.7961 9.81961C10.0717 9.55673 9.30453 9.4243 8.53173 9.42877V9.43899Z" fill="url(#paint0_linear_1044_2266)"/>
<defs>
<linearGradient id="paint0_linear_1044_2266" x1="-0.00211856" y1="12.0012" x2="37.9264" y2="12.0012" gradientUnits="userSpaceOnUse">
<stop stop-color="#F07E3F"/>
<stop offset="1" stop-color="#FFCE65"/>
</linearGradient>
</defs>
</svg>
