<svg width="26" height="27" viewBox="0 0 26 27" fill="none" xmlns="http://www.w3.org/2000/svg">
<path d="M12.9163 19.3119C10.0095 19.3119 5.20398 13.8812 5.20398 7.69431C5.20398 5.65365 6.01652 3.69658 7.46285 2.25361C8.90919 0.810651 10.8708 0 12.9163 0C14.9617 0 16.9233 0.810651 18.3696 2.25361C19.816 3.69658 20.6285 5.65365 20.6285 7.69431C20.6285 12.8006 16.3034 19.3119 12.9163 19.3119ZM12.9163 1.49743C11.2695 1.49941 9.69079 2.15294 8.52636 3.31465C7.36194 4.47636 6.70689 6.05141 6.70491 7.69431C6.70491 13.3272 11.1652 17.8145 12.9163 17.8145C15.0751 17.8145 19.1276 12.4537 19.1276 7.69431C19.1249 6.05184 18.4696 4.47743 17.3053 3.31626C16.1409 2.15509 14.5626 1.50191 12.9163 1.49993V1.49743Z" fill="#FFEBC1"/>
<path d="M22.327 26.4995H3.67047C3.20871 26.4986 2.75275 26.3969 2.33462 26.2014C1.9165 26.0059 1.54636 25.7214 1.25023 25.3679C0.954099 25.0144 0.739166 24.6005 0.620535 24.1553C0.501905 23.7101 0.482453 23.2443 0.563554 22.7908L1.34654 18.4258C1.48655 17.6388 1.90008 16.9261 2.5145 16.4131C3.12892 15.9 3.90491 15.6195 4.70612 15.6206C4.90515 15.6206 5.09604 15.6995 5.23678 15.8399C5.37752 15.9803 5.45658 16.1708 5.45658 16.3693C5.45658 16.5679 5.37752 16.7583 5.23678 16.8987C5.09604 17.0392 4.90515 17.118 4.70612 17.118C4.25731 17.1176 3.82272 17.275 3.47869 17.5626C3.13466 17.8501 2.90318 18.2494 2.82495 18.6903L2.03697 23.0554C1.99419 23.2938 2.00431 23.5387 2.06664 23.7728C2.12896 24.0069 2.24198 24.2245 2.39771 24.4103C2.55344 24.5962 2.74811 24.7457 2.96801 24.8483C3.18791 24.951 3.42769 25.0043 3.67047 25.0045H22.327C22.5724 25.0044 22.8148 24.95 23.0366 24.8453C23.2584 24.7406 23.4543 24.5881 23.61 24.3989C23.7657 24.2096 23.8775 23.9883 23.9372 23.7508C23.997 23.5133 24.0032 23.2656 23.9555 23.0254L23.0775 18.6529C22.9903 18.2204 22.7559 17.8312 22.4139 17.5515C22.072 17.2717 21.6435 17.1186 21.2013 17.118C21.0023 17.118 20.8114 17.0392 20.6707 16.8987C20.5299 16.7583 20.4509 16.5679 20.4509 16.3693C20.4509 16.1708 20.5299 15.9803 20.6707 15.8399C20.8114 15.6995 21.0023 15.6206 21.2013 15.6206C21.9914 15.6225 22.7565 15.8969 23.3669 16.3972C23.9774 16.8975 24.3957 17.5931 24.5509 18.3659L25.4189 22.7359C25.5094 23.1922 25.4975 23.6629 25.3841 24.114C25.2707 24.5652 25.0586 24.9858 24.763 25.3455C24.4675 25.7053 24.0958 25.9953 23.6746 26.1948C23.2535 26.3943 22.7933 26.4984 22.327 26.4995Z" fill="#FFEBC1"/>
<path d="M12.9162 10.7191C14.5326 10.7191 15.843 9.41181 15.843 7.79915C15.843 6.18648 14.5326 4.87915 12.9162 4.87915C11.2998 4.87915 9.98938 6.18648 9.98938 7.79915C9.98938 9.41181 11.2998 10.7191 12.9162 10.7191Z" fill="#FFEBC1"/>
</svg>
